<svg xmlns="http://www.w3.org/2000/svg" width="400" height="250" viewBox="0 0 400 250">
  <defs>
    <linearGradient id="langGrad" x1="0%" y1="0%" x2="100%" y2="100%">
      <stop offset="0%" style="stop-color:#1a1a2e;stop-opacity:1" />
      <stop offset="100%" style="stop-color:#16213e;stop-opacity:1" />
    </linearGradient>
  </defs>
  <rect width="400" height="250" fill="url(#langGrad)" rx="10"/>
  <text x="25" y="30" fill="#fe428e" font-family="Arial, sans-serif" font-size="18" font-weight="bold">Most Used Languages</text>
  <g transform="translate(25, 45)">
    <circle cx="8" cy="10" r="6" fill="#3572A5"/>
    <text x="22" y="14" fill="#ffffff" font-family="Arial, sans-serif" font-size="12">Python</text>
    <text x="350" y="14" fill="#a9fef7" font-family="Arial, sans-serif" font-size="12" text-anchor="end">38.5%</text>
    <rect x="0" y="20" width="300" height="8" fill="#2d2d44" rx="4"/>
    <rect x="0" y="20" width="115.5" height="8" fill="#3572A5" rx="4"/>
  </g>
  <g transform="translate(25, 80)">
    <circle cx="8" cy="10" r="6" fill="#f1e05a"/>
    <text x="22" y="14" fill="#ffffff" font-family="Arial, sans-serif" font-size="12">JavaScript</text>
    <text x="350" y="14" fill="#a9fef7" font-family="Arial, sans-serif" font-size="12" text-anchor="end">24.0%</text>
    <rect x="0" y="20" width="300" height="8" fill="#2d2d44" rx="4"/>
    <rect x="0" y="20" width="72.0" height="8" fill="#f1e05a" rx="4"/>
  </g>
  <g transform="translate(25, 115)">
    <circle cx="8" cy="10" r="6" fill="#2b7489"/>
    <text x="22" y="14" fill="#ffffff" font-family="Arial, sans-serif" font-size="12">TypeScript</text>
    <text x="350" y="14" fill="#a9fef7" font-family="Arial, sans-serif" font-size="12" text-anchor="end">15.5%</text>
    <rect x="0" y="20" width="300" height="8" fill="#2d2d44" rx="4"/>
    <rect x="0" y="20" width="46.5" height="8" fill="#2b7489" rx="4"/>
  </g>
  <g transform="translate(25, 150)">
    <circle cx="8" cy="10" r="6" fill="#e34c26"/>
    <text x="22" y="14" fill="#ffffff" font-family="Arial, sans-serif" font-size="12">HTML</text>
    <text x="350" y="14" fill="#a9fef7" font-family="Arial, sans-serif" font-size="12" text-anchor="end">10.0%</text>
    <rect x="0" y="20" width="300" height="8" fill="#2d2d44" rx="4"/>
    <rect x="0" y="20" width="30.0" height="8" fill="#e34c26" rx="4"/>
  </g>
  <g transform="translate(25, 185)">
    <circle cx="8" cy="10" r="6" fill="#563d7c"/>
    <text x="22" y="14" fill="#ffffff" font-family="Arial, sans-serif" font-size="12">CSS</text>
    <text x="350" y="14" fill="#a9fef7" font-family="Arial, sans-serif" font-size="12" text-anchor="end">7.0%</text>
    <rect x="0" y="20" width="300" height="8" fill="#2d2d44" rx="4"/>
    <rect x="0" y="20" width="21.000000000000004" height="8" fill="#563d7c" rx="4"/>
  </g>
  <g transform="translate(25, 220)">
    <circle cx="8" cy="10" r="6" fill="#DA5B0B"/>
    <text x="22" y="14" fill="#ffffff" font-family="Arial, sans-serif" font-size="12">Jupyter Notebook</text>
    <text x="350" y="14" fill="#a9fef7" font-family="Arial, sans-serif" font-size="12" text-anchor="end">5.0%</text>
    <rect x="0" y="20" width="300" height="8" fill="#2d2d44" rx="4"/>
    <rect x="0" y="20" width="15.0" height="8" fill="#DA5B0B" rx="4"/>
  </g>
</svg>